# xmcd
#
# Track frame offsets:
#	150
#	10605
#	20528
#	29836
#	39144
#	49224
#	59094
#	72497
#	82645
#	94465
#	104005
#	115083
#
# Disc length: 1663 seconds
#
# Revision: 1
# Processed by: cddbd v1.5.2PL0 Copyright (c) Steve Scherf et al.
# Submitted via: audiograbber 1.83.01
#
DISCID=9e067d0c
DTITLE=Rusty Draper - Country And Western Golden Greats
DYEAR=1962
DGENRE=Country
TTITLE0=Please Help Me I'm Falling
TTITLE1=Mule Skinner Blues
TTITLE2=When Two Worlds Collide
TTITLE3=Pick Me Up On Your Way Down
TTITLE4=Hello Walls
TTITLE5=More And More
TTITLE6=Begger To A King
TTITLE7=Conscience I'm Guilty
TTITLE8=Another (Just Like Me)
TTITLE9=Everytime I'm Kissin' You
TTITLE10=Signed, Sealed And Delivered
TTITLE11=Jealous Heart
EXTD=
EXTT0=
EXTT1=
EXTT2=
EXTT3=
EXTT4=
EXTT5=
EXTT6=
EXTT7=
EXTT8=
EXTT9=
EXTT10=
EXTT11=
PLAYORDER=
